<?xml version="1.0" standalone="no"?>
<!DOCTYPE svg PUBLIC "-//W3C//DTD SVG 1.1//EN" "http://www.w3.org/Graphics/SVG/1.1/DTD/svg11.dtd" >
<!--
2013-9-30: Created.
-->
<svg>
<metadata>
Created by iconfont
</metadata>
<defs>

<font id="iconfont" horiz-adv-x="1024" >
  <font-face
    font-family="iconfont"
    font-weight="500"
    font-stretch="normal"
    units-per-em="1024"
    ascent="896"
    descent="-128"
  />
    <missing-glyph />
    
    <glyph glyph-name="home" unicode="&#58959;" d="M909.443429 507.416867c-35.400255 40.812521-83.990926 90.166579-136.852878 138.968052-53.520961 49.415456-107.316168 94.448092-151.464667 126.788661-79.302137 58.097186-103.993492 58.097186-112.100124 58.097186-14.024411 0-40.863686-6.640234-111.809505-64.072271-52.524261-42.523489-110.106724-97.332792-149.169391-135.822408-47.677882-46.986127-96.612385-98.098225-134.257773-140.243091-62.276369-69.721945-62.276369-78.522378-62.276369-85.605703 0-13.776771 0-29.394471 6.825452-42.554188 8.580422-16.530488 25.219381-24.926716 49.455365-24.926716l63.277162 0 7.54893-328.520175c-0.463558-6.40385-1.034563-31.574113 16.539698-51.139727 12.843516-14.288424 31.562856-21.536502 55.653531-21.536502l113.838721 0c0.852414-0.066515 2.071172-0.12075 3.594875-0.12075 8.317433 0 24.449855 1.75804 39.137369 13.46057 17.797341 14.189164 26.818809 37.326117 26.818809 68.76106l0 199.401446-0.073678 0.779759c-0.016373 0.191358-1.292436 19.473517 10.082636 31.981389 7.513114 8.269337 19.631106 12.45466 36.008099 12.45466l99.517551 0c1.447978-0.177032 7.233752-1.043772 12.783141-4.00522 7.635911-4.082992 11.038404-9.948583 11.038404-19.023262L603.558787 14.974294999999984l0.00921-0.584308c0.071631-1.907443 0.926092-19.164478 10.106172-36.885072 12.954033-25.022906 36.449143-38.796608 66.161862-38.796608L791.077601-61.29169200000001c1.819438 0 18.314111 0.246617 35.243689 8.707312 23.852244 11.92868 36.988426 34.487465 36.988426 63.526849 0 0 2.323928 265.192871 0 280.652981-2.323928 15.459087-33.097816 12.860912-33.097816 0 0-12.861936 0-0.001023 0-0.001023L830.2119 10.94246899999996c0-16.192797-5.852288-27.149337-17.891486-33.506115-10.250458-5.40715-21.237697-5.614881-21.237697-5.614881L679.847288-28.17852700000003c-17.124006 0-29.01994 6.574742-36.344766 20.110013-5.788843 10.688433-6.721075 21.98778-6.820336 23.472598l0 225.137597c0 41.405015-35.990702 54.79907-55.019081 56.101739l-101.43011 0.035816c-26.101471 0-46.458101-7.840572-60.505026-23.294542-19.667945-21.624507-18.981307-50.594305-18.62315-56.404638l0-198.033285c0-42.732244-20.577664-49.118698-32.854269-49.118698-0.551562 0-0.932232 0.021489-1.122567 0.029676l0.00614 0.00614-116.321262 0.103354c-14.178931 0-24.571628 3.497661-30.874171 10.402931-9.312086 10.180873-8.362458 25.77606-8.278547 26.956955l0.112564 0.857531c0 0-8.138354 354.22051-7.916297 344.54822 0.222057-9.673313-2.846838 18.427698-18.003026 18.427698s-78.048587 0-78.048587 0c-16.410762 0-19.070334 5.136997-20.067035 7.064906-2.861164 5.506411-3.096525 15.113209-3.110851 24.765033 9.69685 18.535145 89.198531 109.407806 194.089463 212.104769 53.885258 52.763714 103.196337 97.373725 142.593626 129.009236 62.501496 50.169633 82.948177 54.0715 87.720877 54.0715 5.155417 0 27.064402-3.727904 92.539626-51.700499 43.165102-31.624255 95.928816-75.809593 148.570757-124.404358 51.991118-47.994084 99.680257-96.408747 134.296659-136.329968 54.329373-62.643736 54.955636-79.525218 54.955636-80.207763 0-23.078625-9.16473-31.709189-13.154601-34.373879l-47.086411 0-2.792603 0c-13.048177-10.910491-13.048177-22.850427 3.848655-33.107025l3.420913 0 49.145303 0 2.512217 0.826831c1.51654 0.497327 37.201274 12.856819 37.201274 66.642816C972.487278 418.057677 965.958584 442.255799 909.443429 507.416867z"  horiz-adv-x="1024" />

    
    <glyph glyph-name="box" unicode="&#58942;" d="M150.716 773.666c7.531 2.117 15.434 1.399 23.158 1.462 232.125-0.017 464.254 0 696.378-0.017 10.827 0.368 20.434-7.402 23.641-17.551 44.524-133.115 88.785-266.339 133.23-399.5 2.244-7.857 1.243-16.083 1.329-24.137 0.024-104.783-0.040-209.571 0.046-314.336-0.131-7.115-1.547-15.018-7.137-19.969-5.088-5.612-13.165-6.527-20.303-6.787-321.571 0.063-643.166 0.040-964.738 0.023-9.733-0.023-21.413-0.984-28.787 6.655-8.076 7.247-7.339 19.117-7.293 28.983 0 104.742 0.196 209.484-0.087 314.226-1.001 10.563 3.058 20.476 6.443 30.233 42.688 128.159 85.446 256.319 128.118 384.506 2.381 7.414 8.293 14.246 16 16.209v0zM172.844 730.343c-39.725-119.167-79.448-238.358-119.173-357.547 99.751-0.024 199.519-0.047 299.266 0 6.879-0.157 14.58-0.984 19.623-6.246 6.966-5.669 7.812-15.386 8.162-23.745 1.705-39.569 22.744-77.549 54.789-100.662 24.465-17.983 55.243-27.129 85.557-25.471 35.688 1.554 70.387 18.317 93.833 45.244 20.257 22.831 32.392 52.78 33.243 83.312 0.375 7.247 1.444 15.41 7.184 20.514 5.060 5.831 13.268 6.873 20.515 7.053 99.751-0.047 199.498 0 299.22 0-39.725 119.167-79.448 238.358-119.151 357.547-227.695 0.047-455.393 0.047-683.067 0v0zM45.052 328.074c-0.023-96.845-0.023-193.684 0-290.523 312.885-0.028 625.748-0.028 938.633 0 0.024 96.839 0.024 193.678 0 290.523-97.344 0.017-194.696 0.017-292.040 0-6.31-53.385-38.546-102.821-84.642-130.409-35.953-22.092-79.909-30.429-121.487-23.555-39.99 6.31-77.446 27.027-104.334 57.229-24.073 26.763-39.725 60.983-44.093 96.736-97.345 0.016-194.69 0.016-292.036-0.001v0zM45.052 328.074z"  horiz-adv-x="1029" />

    
    <glyph glyph-name="add" unicode="&#59007;" d="M507.951 822.778c-247.675 0-448.384-200.662-448.384-448.214 0-247.577 200.709-448.189 448.384-448.189 247.674 0 448.384 200.612 448.384 448.189C956.335 622.116 755.625 822.778 507.951 822.778zM507.951-37.781c-227.429 0-412.516 184.966-412.516 412.345 0 227.355 185.087 412.346 412.516 412.346 227.477 0 412.514-184.99 412.514-412.346C920.465 147.185 735.428-37.781 507.951-37.781zM525.91 643.482l-35.869 0 0-251.008L240.127 392.474l0-35.845 249.914 0 0-249.815 35.869 0L525.91 356.629l251.08 0 0 35.845L525.91 392.474 525.91 643.482z"  horiz-adv-x="1024" />

    
    <glyph glyph-name="loading" unicode="&#58888;" d="M510.477832 893.935991c3.581572 0 6.985088-0.537236 10.209526-1.611707s6.089695-2.5071 8.596795-4.298909c2.5071-1.791809 4.836145-4.118807 6.985088-6.985088s3.761674-5.910617 4.836145-9.134031 1.611707-6.626931 1.611707-10.209526L542.717094 727.366302c0-9.314133-3.224438-17.014512-9.67229-23.105231-6.447852-6.089695-13.970176-9.134031-22.567995-9.134031-8.596795 0-16.120143 3.044336-22.567995 9.134031-6.447852 6.089695-9.67229 13.791098-9.67229 23.105231L478.236524 861.69673c0 9.314133 3.224438 17.014512 9.67229 23.105231S501.881037 893.935991 510.477832 893.935991L510.477832 893.935991zM510.477832 72.90775299999996c8.596795 0 16.120143-3.044336 22.567995-9.134031 6.447852-6.089695 9.67229-13.791098 9.67229-23.105231L542.718117-94.73743200000001c0-8.596795-3.224438-16.120143-9.67229-22.567995-6.447852-6.447852-13.970176-9.67229-22.567995-9.67229-8.596795 0-16.120143 3.224438-22.567995 9.67229s-9.67229 13.970176-9.67229 22.567995L478.237547 40.66849100000002c0 9.314133 3.224438 17.015535 9.67229 23.105231S501.881037 72.90775299999996 510.477832 72.90775299999996L510.477832 72.90775299999996 510.477832 72.90775299999996zM1020.934686 383.48015999999996c0-8.596795-3.224438-15.940041-9.67229-22.029736s-13.970176-9.134031-22.567995-9.134031L853.289502 352.31639299999995c-5.731538 0-11.103896 1.432629-16.120143 4.298909-5.015224 2.866281-8.954953 6.626931-11.821233 11.283997-2.866281 4.656043-4.298909 9.851369-4.298909 15.581883 0 9.314133 3.224438 17.014512 9.67229 23.105231 6.447852 6.089695 13.970176 9.134031 22.567995 9.134031l135.404899 0c5.731538 0 11.103896-1.432629 16.120143-4.298909 5.015224-2.866281 8.954953-6.626931 11.821233-11.283997C1019.502058 395.480472 1020.934686 389.928013 1020.934686 383.48015999999996L1020.934686 383.48015999999996 1020.934686 383.48015999999996zM199.905424 383.48015999999996c0-8.596795-3.224438-15.940041-9.67229-22.029736-6.447852-6.089695-13.970176-9.134031-22.567995-9.134031L32.261263 352.31639299999995c-8.596795 0-16.120143 3.044336-22.567995 9.134031s-9.67229 13.43294-9.67229 22.029736c0 9.314133 3.224438 17.014512 9.67229 23.105231 6.447852 6.089695 13.970176 9.134031 22.567995 9.134031l135.404899 0c8.596795 0 16.120143-3.044336 22.567995-9.134031C196.68201 400.494673 199.905424 392.79327 199.905424 383.48015999999996L199.905424 383.48015999999996zM952.157253 639.245312c2.866281-5.731538 4.298909-11.283997 4.298909-16.657378 0-5.373381-1.432629-10.56666-4.298909-15.581883-2.866281-5.015224-6.80601-8.954953-11.821233-11.821233l-117.135814-67.702961c-7.164167-4.298909-15.044648-5.373381-23.642466-3.224438s-15.402805 7.164167-20.418029 15.044648c-4.298909 7.880481-5.193279 16.120143-2.686179 24.716938 2.5071 8.596795 7.343245 15.044648 14.507412 19.343557l117.135814 67.702961c4.298909 2.148943 8.596795 3.403516 12.895705 3.761674s8.239662 0 11.821233-1.074472c3.581572-1.074472 7.16519-2.866281 10.746762-5.373381C947.14203 645.872243 950.007287 642.826883 952.157253 639.245312L952.157253 639.245312 952.157253 639.245312zM240.742505 228.730681c4.298909-7.880481 5.373381-16.120143 3.224438-24.716938s-7.164167-15.044648-15.044648-19.343557l-117.135814-67.702961c-3.581572-2.148943-7.522324-3.403516-11.821233-3.761674-4.298909-0.358157-8.417717 0-12.358469 1.074472-3.940752 1.074472-7.522324 2.866281-10.746762 5.373381-3.224438 2.5071-5.910617 5.552459-8.05956 9.134031-5.015224 7.880481-6.268774 16.120143-3.761674 24.716938 2.5071 8.596795 7.702426 15.044648 15.581883 19.343557l116.061342 67.702961c7.880481 4.298909 16.120143 5.194302 24.716938 2.686179C229.995743 240.73201600000004 236.443595 235.89587100000006 240.742505 228.730681L240.742505 228.730681 240.742505 228.730681zM765.168512 826.23303c7.880481-4.298909 12.895705-10.746762 15.044648-19.343557s1.074472-16.836457-3.224438-24.716938L709.286784 665.036721c-4.298909-7.880481-10.746762-12.895705-19.343557-15.044648-8.596795-2.148943-16.477276-1.074472-23.642466 3.224438-7.880481 4.298909-13.074783 10.746762-15.581883 19.343557-2.5071 8.596795-1.254573 16.836457 3.761674 24.716938L722.182488 814.41282c2.148943 3.581572 4.836145 6.626931 8.05956 9.134031 3.224438 2.5071 6.80601 4.298909 10.746762 5.373381 3.940752 1.074472 8.05956 1.432629 12.358469 1.074472C757.646188 829.636546 761.58694 828.382996 765.168512 826.23303L765.168512 826.23303 765.168512 826.23303zM354.654904 114.81828099999996c7.880481-4.298909 12.895705-10.746762 15.044648-19.343557 2.148943-8.596795 1.074472-16.836457-3.224438-24.716938l-67.702961-117.135814c-4.298909-7.880481-10.746762-12.895705-19.343557-15.044648-8.596795-2.148943-16.836457-1.074472-24.716938 3.224438-5.015224 2.866281-8.954953 6.80601-11.821233 11.821233s-4.118807 10.388605-3.761674 16.120143c0.358157 5.731538 1.611707 11.104919 3.761674 16.120143l67.702961 117.135814c5.015224 7.880481 11.821233 12.895705 20.418029 15.044648C339.609233 120.19166199999995 347.489714 119.11719100000005 354.654904 114.81828099999996L354.654904 114.81828099999996 354.654904 114.81828099999996zM254.712681 826.23303c4.298909 2.148943 8.596795 3.403516 12.895705 3.761674 4.298909 0.358157 8.417717 0 12.358469-1.074472 3.940752-1.074472 7.522324-2.866281 10.746762-5.373381s5.910617-5.552459 8.05956-9.134031l67.702961-117.135814c4.298909-7.880481 5.373381-16.120143 3.224438-24.716938-2.148943-8.596795-7.164167-15.044648-15.044648-19.343557-7.164167-4.298909-15.044648-5.373381-23.642466-3.224438-8.596795 2.148943-15.402805 7.164167-20.418029 15.044648L242.891448 782.172535c-1.432629 2.148943-2.5071 4.656043-3.223415 7.522324-0.716314 2.866281-0.895393 5.731538-0.537236 8.596795 0.358157 2.866281 0.895393 5.552459 1.611707 8.05956 0.716314 2.5071 1.611707 5.015224 2.686179 7.522324 1.074472 2.5071 2.686179 4.836145 4.836145 6.985088S252.563738 824.801425 254.712681 826.23303L254.712681 826.23303 254.712681 826.23303zM666.301783 114.81828099999996c5.015224 2.866281 10.209526 4.298909 15.581883 4.298909s10.56666-1.432629 15.581883-4.298909c5.015224-2.865257 8.954953-6.80601 11.821233-11.821233l67.702961-117.135814c4.298909-7.880481 5.373381-16.120143 3.224438-24.716938s-7.164167-15.044648-15.044648-19.343557c-3.581572-2.148943-7.522324-3.403516-11.821233-3.761674-4.298909-0.358157-8.417717 0-12.358469 1.074472-3.940752 1.074472-7.522324 2.866281-10.746762 5.373381-3.223415 2.5071-5.910617 5.552459-8.05956 9.134031L654.48055 70.75778600000001c-5.015224 7.880481-6.268774 16.120143-3.761674 24.716938C653.225977 104.072543 658.421302 110.52039500000001 666.301783 114.81828099999996L666.301783 114.81828099999996 666.301783 114.81828099999996zM68.799434 639.245312c4.298909 7.880481 10.746762 12.895705 19.343557 15.044648s16.477276 1.074472 23.642466-3.224438l117.135814-67.702961c7.880481-4.298909 12.895705-10.746762 15.044648-19.343557 2.148943-8.596795 1.074472-16.836457-3.224438-24.716938-4.298909-7.880481-10.746762-12.895705-19.343557-15.044648-8.596795-2.148943-16.836457-1.074472-24.716938 3.224438L80.619644 595.1848170000001c-7.880481 4.298909-13.074783 10.746762-15.581883 19.343557C62.53066 623.125169 63.78421 631.364831 68.799434 639.245312L68.799434 639.245312zM779.138688 228.730681c3.581572 5.015224 7.880481 8.954953 12.895705 11.821233 5.015224 2.866281 10.209526 4.298909 15.581883 4.298909 5.373381 0 10.56666-1.432629 15.581883-4.298909l117.135814-67.702961c7.880481-4.298909 12.895705-10.746762 15.044648-19.343557s1.074472-16.836457-3.224438-24.716938c-4.298909-7.880481-10.746762-12.895705-19.343557-15.044648-8.596795-2.148943-16.836457-1.074472-24.716938 3.224438l-117.135814 67.702961c-7.164167 4.298909-12.000312 10.746762-14.507412 19.343557C773.945409 212.61156100000005 774.840802 220.85019999999997 779.138688 228.730681L779.138688 228.730681 779.138688 228.730681z"  horiz-adv-x="1024" />

    
    <glyph glyph-name="search" unicode="&#58893;" d="M1001.526-95.698c-1.604 4.877-1.604 4.877-2.865 7.168-1.105 1.984-2.368 3.806-3.959 5.878-2.202 2.866-5.279 6.484-9.344 11.034-7.135 7.985-17.534 19.073-31.316 33.434-21.547 22.452-43.133 44.501-95.562 97.793-51.918 52.772-73.698 75.021-95.054 97.278-13.39 13.955-23.439 24.672-30.094 32.12-3.305 3.699-5.679 6.492-6.966 8.165 0.857-1.611 0.857-1.611 2.211-5.59 2.109-7.495 2.109-7.495-6.967-24.755 82.243 79.258 129.721 189.187 129.721 306.774 0 233.285-185.801 422.399-414.998 422.399-229.197 0-414.998-189.114-414.998-422.399 0-233.285 185.801-422.399 414.998-422.399 5.024 0 10.224 0.235 16.015 0.682 4.139 0.319 7.732 0.664 14.304 1.341 13.307 1.372 18.153 1.762 23.746 1.762 9.499 0 24.567 3.368 46.993 9.585 2.631 0.729 5.329 1.491 8.086 2.281 8.5 2.437 17.191 5.040 25.621 7.643 5.063 1.563 8.929 2.784 11.136 3.493 13.247 4.254 20.598 18.633 16.418 32.116-4.18 13.483-18.307 20.965-31.554 16.711-2.039-0.655-5.73-1.82-10.603-3.325-8.13-2.51-16.509-5.020-24.655-7.355-2.622-0.752-5.182-1.474-7.669-2.164-17.234-4.778-30.689-7.785-33.773-7.785-7.939-0-13.677-0.463-28.813-2.023-6.168-0.636-9.443-0.95-13.035-1.227-4.615-0.356-8.588-0.536-12.216-0.536-201.416 0-364.695 166.192-364.695 371.199 0 205.008 163.28 371.199 364.695 371.199 201.416 0 364.695-166.192 364.695-371.199 0-103.375-41.692-199.909-114.003-269.595-9.255-17.568-9.255-17.568-7.048-25.632 1.589-4.678 1.589-4.678 2.832-6.923 1.101-1.961 2.361-3.776 3.945-5.836 2.21-2.874 5.293-6.499 9.361-11.053 7.146-7.998 17.549-19.093 31.323-33.447 21.563-22.472 43.408-44.789 95.478-97.715 52.278-53.138 73.8-75.123 95.141-97.36 13.397-13.96 23.444-24.672 30.086-32.106 3.296-3.689 5.661-6.47 6.933-8.126-0.938 1.752-0.938 1.752-2.319 5.944-2.072 8.077-2.072 8.077 8.092 25.4-10.608-9.128-11.937-25.28-2.969-36.077 8.968-10.797 24.838-12.15 35.445-3.022 10.357 17.616 10.357 17.616 8.199 26.25z"  horiz-adv-x="1024" />

    
    <glyph glyph-name="copy" unicode="&#58899;" d="M790.458 722.84H274.382c-47.307 0-86.014-38.706-86.014-86.014v-43.007h-43.007c-47.307 0-86.014-38.706-86.014-86.014v-516.076c0-47.307 38.706-86.014 86.014-86.014h516.076c47.307 0 86.014 38.706 86.014 86.014v43.007h43.007c47.307 0 86.014 38.706 86.014 86.014V636.826c0 47.307-38.706 86.014-86.014 86.014z m-86.012-731.108c0-25.803-17.203-43.007-43.007-43.007H145.363c-25.803 0-43.007 17.203-43.007 43.007V507.808c0 25.803 17.203 43.007 43.007 43.007h516.076c25.803 0 43.007-17.203 43.007-43.007v-516.076z m129.018 129.017c0-25.803-17.203-43.007-43.007-43.007H747.45V507.805c0 47.307-38.706 86.014-86.014 86.014H231.373v43.007c0 25.803 17.203 43.007 43.007 43.007h516.076c25.803 0 43.007-17.203 43.007-43.007V120.75z"  horiz-adv-x="1024" />

    
    <glyph glyph-name="edit-ok" unicode="&#58915;" d="M686.08 0H230.4c-43.52 0-76.8 28.16-76.8 66.56V642.56c0 35.84 35.84 66.56 76.8 66.56h258.56c12.8 0 20.48-10.24 20.48-20.48 0-12.8-10.24-20.48-20.48-20.48H230.4c-17.92 0-35.84-10.24-35.84-23.04v-578.56c0-12.8 17.92-23.04 35.84-23.04h453.12c17.92 0 35.84 10.24 35.84 23.04V381.44000000000005c0 12.8 10.24 20.48 20.48 20.48 12.8 0 20.48-10.24 20.48-20.48v-317.44c2.56-35.84-33.28-64-74.24-64zM560.64 409.6H289.28c-12.8 0-20.48 10.24-20.48 20.48s10.24 20.48 20.48 20.48h271.36c12.8 0 20.48-10.24 20.48-20.48s-10.24-20.48-20.48-20.48zM627.2 281.6H289.28c-12.8 0-20.48 10.24-20.48 20.48 0 12.8 10.24 20.48 20.48 20.48h340.48c12.8 0 20.48-10.24 20.48-20.48s-10.24-20.48-23.04-20.48zM627.2 153.60000000000002H289.28c-12.8 0-20.48 10.24-20.48 20.48s10.24 20.48 20.48 20.48h340.48c12.8 0 20.48-10.24 20.48-20.48s-10.24-20.48-23.04-20.48zM691.2 440.32c-89.6 0-163.84 74.24-163.84 163.84S601.6 768 691.2 768s163.84-74.24 163.84-163.84-74.24-163.84-163.84-163.84z m0 284.16c-66.56 0-120.32-53.76-120.32-120.32s53.76-120.32 120.32-120.32 120.32 53.76 120.32 120.32-53.76 120.32-120.32 120.32zM678.4 545.28c-5.12 0-10.24 2.56-15.36 5.12l-40.96 40.96c-7.68 7.68-7.68 20.48 0 30.72 7.68 7.68 20.48 7.68 30.72 0l25.6-25.6 58.88 58.88c7.68 7.68 20.48 7.68 30.72 0s7.68-20.48 0-30.72l-76.8-74.24c-2.56-2.56-7.68-5.12-12.8-5.12z"  horiz-adv-x="1024" />

    
    <glyph glyph-name="shape" unicode="&#58882;" d="M128 725.726c0 46.911 38.013 84.941 85.223 84.941h640.22c47.068 0 85.223-38.324 85.223-84.941v-683.452c0-46.911-38.013-84.941-85.223-84.941h-640.22c-47.068 0-85.223 38.324-85.223 84.941v683.452zM170.667 725.726v-683.452c0-23.146 19.146-42.274 42.557-42.274h640.22c23.618 0 42.557 18.898 42.557 42.274v683.452c0 23.146-19.146 42.274-42.557 42.274h-640.22c-23.618 0-42.557-18.898-42.557-42.274zM256 640h512v-42.667h-512v42.667zM256 426.667h469.333v-42.667h-469.333v42.667zM256 213.333h341.333v-42.667h-341.333v42.667z"  horiz-adv-x="1024" />

    
    <glyph glyph-name="shuxie" unicode="&#58883;" d="M161.2 196.2c44.2-50.6 175.3-16.9 228.9-0.5-29.3 19.4-45.3 39.7-53.7 56.9-12.7 25.7-19.3 80.6 29.3 74.5 208.9-29 257.3 59.4 309.4 155.6 42.9 78.7 87.8 161.8 201.5 206.4-109 187.5-422-23.6-476.1-152.9-5.1-14.8-17.6-25-33-25-18.9 0-34.8 16.4-34.8 35.9 0 0 2.9 52.4 18.7 120.2-23.5-22.4-43.8-49-60-78.7-28.4-52.1-41.4-112.1-26.8-166.2h-0.2c3.8-14.3-1.3-30.7-14.3-39.5-15.6-10.7-36.5-6.1-47.3 10.3-15.4 24.6-32.5 48.3-45.3 74.5-29.1-82.7-40.1-192.5 3.7-271.5z m193.3-260h357.2c11.9 0 20.9 9.8 20.9 21.8 0 12.1-9 21.3-20.9 21.3H354.5c-11.2 0-20.7-9.2-20.7-21.3 0.1-12.1 9.5-21.8 20.7-21.8zM102.7 157.6c-69.3 123.8-40.9 307.1 32.1 421.2 10.1 16.4 31.9 21.1 47.3 9.8 7.6-5.1 13-12.9 14.4-21.3h0.4c1.3-6.5 2.9-12.6 4.4-18.5 7.5 26.1 17.6 51.8 30.8 75.7 39.2 72.6 102.3 132.8 170.5 160.2 17.6 6.9 37.2-2.3 44.4-20.7 3.1-9.5 2.6-19-0.9-27.7-6.8-15.9-12.7-32-17.8-47.7 50.8 47.7 114.8 90 180.1 115.9C744 858.1 898.8 842 956.8 680.2c6.8-18.7-2.6-39.2-20.2-46.9l-3.1-1c-115.3-31.7-158.2-110.7-198.6-185.4C678.1 342.6 624.9 245.6 437 249c12.5-6.1 29.3-12.9 50.4-19.7 18-5.7 28.4-25.7 22.7-45.1-2.7-9.5-9-17-17.2-21.3-86.7-51.8-238.5-88.1-336.3-47.6-13.4-20.3-34.6-65.1-19.8-135.5v-0.4h94.8c11.6 0 20.4-9.2 20.4-21.3 0-12-8.8-21.8-20.4-21.8H107.1c-17.6-1.8-33.6 10.6-37.8 28.7-18.8 93.7 11.2 159.8 33.4 192.6z"  horiz-adv-x="1024" />

    
    <glyph glyph-name="book" unicode="&#58884;" d="M742.4-25.600000000000023l-512 0c-14.1312 0-25.6 11.4688-25.6 25.6s11.4688 25.6 25.6 25.6l512 0c14.1312 0 25.6-11.4688 25.6-25.6s-11.4688-25.6-25.6-25.6zM844.8 742.4c-14.1312 0-25.6-11.4688-25.6-25.6l0-768c0-14.1312-11.4688-25.6-25.6-25.6l-563.2 0c-42.3424 0-76.8 34.4576-76.8 76.8s34.4576 76.8 76.8 76.8l460.8 0c42.3424 0 76.8 34.4576 76.8 76.8l0 614.4c0 42.3424-34.4576 76.8-76.8 76.8l-512 0c-42.3424 0-76.8-34.4576-76.8-76.8l0-768c0-70.5536 57.4464-128 128-128l563.2 0c42.3424 0 76.8 34.4576 76.8 76.8l0 768c0 14.1312-11.4688 25.6-25.6 25.6zM179.2 793.6l512 0c14.1312 0 25.6-11.4688 25.6-25.6l0-614.4c0-14.1312-11.4688-25.6-25.6-25.6l-460.8 0c-28.7744 0-55.3984-9.5744-76.8-25.6512l0 665.6512c0 14.1312 11.4688 25.6 25.6 25.6z"  horiz-adv-x="1024" />

    
    <glyph glyph-name="success" unicode="&#59039;" d="M482.401409 169.83764299999996l-195.510811 168.374817a24.380947 24.380947 0 1 1-31.817135-36.937134l234.64223-202.118047 442.51418 577.999101-11.166473 14.799234A511.146545 511.146545 0 0 1 511.999878 895.999756C229.22966 895.999756 0 666.770096 0 383.99987799999997s229.22966-511.999878 511.999878-511.999878c112.591211 0 219.721091 36.473896 307.78507 102.814452A511.146545 511.146545 0 0 1 1023.999756 383.99987799999997a24.380947 24.380947 0 0 1-48.761893 0 462.409033 462.409033 0 0 0-184.807575-370.249055A461.019319 461.019319 0 0 0 511.999878-79.23810700000001C256.170606-79.23810700000001 48.761893 128.17060600000002 48.761893 383.99987799999997S256.170606 847.237863 511.999878 847.237863a462.262747 462.262747 0 0 0 358.765629-170.154626l-388.388479-507.245594z"  horiz-adv-x="1024" />

    
    <glyph glyph-name="gengduo" unicode="&#58891;" d="M535.3472 71.031467a35.976533 35.976533 0 0 0-24.541867 62.2592l268.629334 250.743466-268.629334 250.6752a35.9424 35.9424 0 1 0 49.0496 52.599467l296.789334-276.992a36.010667 36.010667 0 0 0 0-52.6336l-296.789334-277.060267a35.908267 35.908267 0 0 0-24.507733-9.591466zM238.3872 71.031467a35.976533 35.976533 0 0 0-24.541867 62.2592l268.6976 250.743466-268.663466 250.6752a35.976533 35.976533 0 0 0 49.0496 52.6336l296.925866-276.992a36.010667 36.010667 0 0 0 0-52.6336l-296.925866-277.060266a35.9424 35.9424 0 0 0-24.541867-9.6256z"  horiz-adv-x="1024" />

    
    <glyph glyph-name="wallet" unicode="&#59073;" d="M1076.906667 25.600000000000023v109.226667c39.253333 30.72 64.853333 76.8 64.853333 131.413333s-25.6 100.693333-64.853333 131.413333V880.64H153.6c-80.213333 0-146.773333-66.56-146.773333-146.773333v-708.266667c0-80.213333 66.56-146.773333 146.773333-146.773333h776.533333c80.213333 0 146.773333 66.56 146.773334 146.773333z m-98.986667 337.92H991.573333c3.413333 0 8.533333-1.706667 11.946667-1.706667 1.706667 0 3.413333-1.706667 5.12-1.706666h1.706667c1.706667 0 3.413333-1.706667 5.12-1.706667 1.706667 0 3.413333-1.706667 5.12-1.706667h1.706666c1.706667 0 3.413333-1.706667 3.413334-1.706666 29.013333-17.066667 49.493333-47.786667 49.493333-83.626667 0-35.84-20.48-68.266667-49.493333-83.626667-1.706667 0-3.413333-1.706667-3.413334-1.706666h-1.706666c-1.706667 0-3.413333-1.706667-5.12-1.706667-1.706667 0-3.413333-1.706667-5.12-1.706667h-1.706667c-1.706667 0-3.413333-1.706667-5.12-1.706666-1.706667 0-3.413333-1.706667-6.826667-1.706667-1.706667 0-3.413333 0-5.12-1.706667h-6.826666-465.92c-47.786667 5.12-83.626667 42.666667-87.04 90.453334v5.12 5.12c3.413333 51.2 44.373333 92.16 97.28 92.16h448.853333v-6.826667z m-824.32 290.133333c-44.373333 0-80.213333 35.84-80.213333 80.213334s35.84 80.213333 80.213333 80.213333h855.04v-46.08h-609.28v-68.266667h609.28v-46.08H153.6z m-78.506667-628.053333v583.68c22.186667-15.36 49.493333-23.893333 80.213334-23.893333h853.333333v-158.72h-1.706667c-1.706667 0-5.12 0-6.826666 1.706666h-23.893334H529.066667c-85.333333 0-155.306667-64.853333-163.84-146.773333v-17.066667c0-90.453333 73.386667-163.84 163.84-163.84H1001.813333c1.706667 0 3.413333 0 6.826667 1.706667h1.706667v-80.213333c0-44.373333-35.84-80.213333-80.213334-80.213334H153.6c-44.373333 5.12-78.506667 39.253333-78.506667 83.626667z m853.333334 240.64c0 27.306667 22.186667 49.493333 49.493333 49.493333s49.493333-22.186667 49.493333-49.493333c0-27.306667-22.186667-49.493333-49.493333-49.493333s-49.493333 22.186667-49.493333 49.493333z"  horiz-adv-x="1143" />

    
    <glyph glyph-name="arrow" unicode="&#58880;" d="M347.2 384.12800000000004c4.336808689942018e-19 0.003 8.673617379884035e-19 0.006 1.734723475976807e-18 0.008 1.7763568394002505e-15 9.137 3.8290000000000033 17.379 9.970000000000006 23.21l265.614 251.2769999999999c5.720000000000001 5.415 13.464000000000002 8.742999999999999 21.984 8.743999999999996 17.678-3.552713678800501e-15 32.008-14.330000000000005 32.007999999999996-32.008-1.7763568394002505e-15-9.157-3.8450000000000033-17.416-10.009000000000007-23.25l-241.10300000000004-228.04499999999993 241.08799999999997-228.22400000000002c6.164999999999999-5.855000000000001 10.000999999999996-14.113000000000001 10.000999999999998-23.266000000000002-8.881784197001252e-16-8.516-3.320000000000002-16.256-8.736000000000004-21.997999999999998-12.145000000000003-12.784-32.434-13.359999999999994-45.233-1.2639999999999958l-265.5999999999999 251.52c-6.155 5.844000000000001-9.983999999999998 14.086000000000004-9.983999999999996 23.222999999999995 3.469446951953614e-18 0.025 3.469446951953614e-18 0.05099999999999999 1.3877787807814457e-17 0.076z"  horiz-adv-x="1024" />

    
    <glyph glyph-name="safe" unicode="&#58892;" d="M512.434742-128c-77.620477 0-182.706507 54.336826-274.06325 141.510669C138.064637 109.04532800000004 80.743443 221.298626 80.743443 320.40694800000006V727.622046c0 14.926823 11.940461 27.470539 26.866287 27.47054l40.006279 0.595278c3.579646 0 87.172846 2.38211 173.155135 37.616192 90.75648 36.418656 151.063038 79.411297 151.65732 80.005578l23.890893 17.315912C501.089559 894.204195 506.464013 896 512.434742 896c5.970729 0 11.34618-1.795805 16.118377-5.375451l23.888899-17.315912c2.389089-1.787829 60.902834-43.586921 151.061044-80.005578 85.976307-35.234083 169.569507-37.616192 173.149153-37.616192l40.006279-0.595278c14.925826 0 26.873267-12.543716 26.873267-27.47054V320.41492500000004c0-99.719553-57.321194-211.369597-157.634032-306.904256-90.15821-87.767127-195.244241-141.510669-273.462987-141.510669zM136.270826 319.81865000000005c0-84.188478 51.351462-181.515951 140.312136-266.897977 78.821004-75.232384 173.757393-125.989565 235.850783-125.989566 62.094387 0 157.03277 50.756184 235.846795 125.989566 89.562932 85.382026 140.312136 182.701522 140.312136 266.897977v380.339837h-13.132014c-4.183898 0-97.923748 2.984367-192.862132 41.792113-94.335128 38.212467-155.84022 81.800386-162.406227 86.579562l-7.758558 5.970729-7.762546-5.970729c-2.389089-1.787829-65.683007-47.168561-162.408221-86.579562-95.533661-38.807746-189.279494-41.195838-192.860137-41.792113h-13.138995v-380.339837h0.00698z m0 0M464.069642 241.00462500000003c-8.360816 0-16.117379 2.976391-22.095088 8.9541L321.368417 371.164129c-5.970729 5.969732-8.956094 13.732278-8.956094 22.094091 0 8.357824 2.986362 16.122365 8.956094 22.095088 5.970729 5.970729 13.733275 8.9541 22.093094 8.9541 8.360816 0 16.117379-2.98337 22.088108-8.9541l98.520023-98.520023 219.133141 219.12616c5.970729 5.970729 13.734273 8.962076 22.095088 8.962077 8.352839 0 16.117379-2.984367 22.087111-8.962077 11.941458-11.940461 11.941458-32.241738 0-44.182199L486.163733 250.55400299999997c-5.968735-5.969732-13.73527-9.549378-22.094091-9.549378z m0 0"  horiz-adv-x="1024" />

    
    <glyph glyph-name="more" unicode="&#58896;" d="M286.528 384c0-63.04-51.072-114.112-114.112-114.112C109.376 269.88800000000003 58.304 320.96000000000004 58.304 384s51.072 114.112 114.112 114.112C235.456 498.112 286.528 447.04 286.528 384zM512 498.112C448.96 498.112 397.888 447.04 397.888 384S448.96 269.88800000000003 512 269.88800000000003 626.112 320.96000000000004 626.112 384 575.04 498.112 512 498.112zM851.648 498.112c-63.04 0-114.112-51.072-114.112-114.112s51.072-114.112 114.112-114.112c63.04 0 114.112 51.072 114.112 114.112S914.688 498.112 851.648 498.112z"  horiz-adv-x="1024" />

    
    <glyph glyph-name="edit" unicode="&#58881;" d="M729.53725801-66h-464.516129A145.16129004 145.16129004 0 0 0 119.85983896 79.16129004000004V659.80645195A145.16129004 145.16129004 0 0 0 265.02112901 804.96774199h409.93548398a29.032258 29.032258 0 0 0 0-58.06451601H265.02112901A87.09677402 87.09677402 0 0 1 177.92435498 659.80645195v-580.64516191a87.09677402 87.09677402 0 0 1 87.09677403-87.09677402h464.51612899A87.09677402 87.09677402 0 0 1 816.63403203 79.16129004000004V616.2580649399999a29.032258 29.032258 0 0 0 58.06451602 0V79.16129004000004a145.16129004 145.16129004 0 0 0-145.16129005-145.16129004zM526.31145195 485.61290303H352.11790303a29.032258 29.032258 0 0 0-1e-8 58.06451601h174.19354893a29.032258 29.032258 0 0 0 0-58.06451601zM642.44048398 311.41935498H352.11790303a29.032258 29.032258 0 0 0-1e-8 58.06451601h290.32258096a29.032258 29.032258 0 0 0 0-58.06451601zM642.44048398 137.22580604999996H352.11790303a29.032258 29.032258 0 0 0-1e-8 58.0645169h290.32258096a29.032258 29.032258 0 0 0 0-58.0645169zM635.47274199 536.70967705a29.032258 29.032258 0 0 0-20.32258095 49.35483897L854.37596797 825.29032295a29.032258 29.032258 0 1 0 41.22580605-41.22580693L655.79532295 543.67741904a29.032258 29.032258 0 0 0-20.32258095-6.96774199z"  horiz-adv-x="1024" />

    
    <glyph glyph-name="team" unicode="&#58929;" d="M99.607273 60.427636s6.365091 19.514182 12.846545 51.770182c9.565091 47.662545 73.553455 124.834909 230.062546 184.448 8.622545 3.281455 19.118545 6.295273 31.569454 14.196364 18.164364 11.508364 32.151273 35.211636-1.617454 64.267636-111.674182 162.210909-71.028364 269.998545-54.062546 310.597818-14.173091 5.562182-30.301091 8.843636-48.744727 8.843637h-5.794909c-106.88 0-135.296-97.989818-137.460364-152.936728-1.442909-129.594182 77.160727-181.108364 77.160727-181.108363s4.898909-6.818909 4.89891-26.577455c0-4.503273-2.909091-18.013091-7.936-22.074182C156.648727 276.037818 10.228364 238.731636 0 161.594182m1020.881455 0.674909c-10.496 77.044364-160.826182 114.292364-205.824 150.062545-5.154909 4.084364-8.110545 17.559273-8.110546 22.062546 0 19.735273 4.980364 26.542545 4.980364 26.542545s80.605091 51.444364 79.104 180.875637c-2.210909 54.888727-36.189091 152.750545-140.858182 152.750545h-5.957818c-22.562909 0-41.541818-4.328727-57.728-11.392 22.388364-75.589818 49.314909-214.272-63.930182-307.211636-44.427636-66.746182 103.552-105.925818 80.558545-95.499637 133.911273-60.660364 169.949091-107.194182 179.770182-155.310545 8.192-40.157091 12.834909-64.721455 12.834909-64.721455s100.328727 15.429818 126.289455 35.025455c1.105455 21.445818 4.410182 44.555636-1.128727 66.816zM584.215273 310.155636c-6.330182 5.061818-9.960727 21.829818-9.960728 27.415273 0 24.529455 6.074182 32.965818 6.074182 32.965818-0.093091-0.069818 99.013818 53.946182 97.070546 224.814546-2.699636 68.224-44.381091 189.835636-172.823273 189.835636h-7.307636c-134.376727 0-170.112-121.611636-172.823273-189.835636-1.815273-160.849455 97.024-224.814545 97.024-224.814546s11.985455-13.789091 11.985454-38.330182c0-5.573818-9.506909-16.989091-15.825454-22.062545-55.168-44.462545-253.789091-89.274182-266.658909-185.018182-9.960727-40.599273-68.945455-105.029818 127.127273-130.967273 54.027636-7.144727 127.394909-11.368727 226.466909-11.368727 454.737455 0 360.715636 88.797091 347.950545 140.846546-12.904727 95.778909-213.12 142.056727-268.299636 186.519272z m0 0"  horiz-adv-x="1024" />

    
    <glyph glyph-name="no-photographing" unicode="&#59074;" d="M511.618 267.192c5.235 0 10.321 0.521 15.331 1.421L428.38 367.17999999999995c-0.897-5.01-1.42-10.096-1.42-15.33 0-46.742 37.916-84.658 84.658-84.658M238.572 174.38h382.61l-63.794 63.869a121.183 121.183 0 0 0-45.77-8.973c-67.532 0-122.65 54.968-122.65 122.648 0 16.154 3.291 31.485 8.974 45.696l-131.7 131.699h-27.67V174.38zM608.469 529.395L596.8 618.092H426.437l-5.535-42.479 101.71-101.71c58.782-5.16 105.824-52.202 111.061-111.133l150.992-150.921V529.395H608.469zM511.618 896c-156.454 0-296.68-70.674-390.612-181.732l660.369-659.844a458.244 458.244 0 0 0-22.811-17.353c-69.777-49.657-154.957-79.125-246.946-79.125-235.13 0-426.435 191.305-426.435 426.437 0 91.913 29.392 176.946 78.9 246.646l-61.026 61.026C38.441 606.35 0 499.779 0 384.383c0-282.096 229.522-511.617 511.618-511.617 156.381 0 296.457 70.599 390.388 181.432L241.937 714.343a437.508 437.508 0 0 0 22.811 17.426c69.775 49.733 154.884 79.05 246.871 79.05 235.131 0 426.436-191.306 426.436-426.435 0-91.988-29.315-177.096-79.05-246.874-0.075 0-0.075 0-0.075-0.074l60.951-60.951c64.841 85.633 103.356 192.426 103.356 307.899C1023.236 666.479 793.791 896 511.618 896"  horiz-adv-x="1024" />

    
    <glyph glyph-name="qr" unicode="&#58916;" d="M368 336H176c-52.8 0-96-43.2-96-96v-192c0-52.8 43.2-96 96-96h192c52.8 0 96 43.2 96 96V240c0 52.8-43.2 96-96 96z m32-288c0-17.6-14.4-32-32-32H176c-17.6 0-32 14.4-32 32V240c0 17.6 14.4 32 32 32h192c17.6 0 32-14.4 32-32v-192zM368 816H176c-52.8 0-96-43.2-96-96v-192c0-52.8 43.2-96 96-96h192c52.8 0 96 43.2 96 96V720c0 52.8-43.2 96-96 96z m32-288c0-17.6-14.4-32-32-32H176c-17.6 0-32 14.4-32 32V720c0 17.6 14.4 32 32 32h192c17.6 0 32-14.4 32-32v-192z m496-192c-17.6 0-32-14.4-32-32v-320c0-17.6 14.4-32 32-32s32 14.4 32 32V304c0 17.6-14.4 32-32 32zM848 816H656c-52.8 0-96-43.2-96-96v-192c0-52.8 43.2-96 96-96h192c52.8 0 96 43.2 96 96V720c0 52.8-43.2 96-96 96z m32-288c0-17.6-14.4-32-32-32H656c-17.6 0-32 14.4-32 32V720c0 17.6 14.4 32 32 32h192c17.6 0 32-14.4 32-32v-192zM608 288c-17.6 0-32-14.4-32-32v-272c0-17.6 14.4-32 32-32s32 14.4 32 32V256c0 17.6-14.4 32-32 32z m144-96c-17.6 0-32-14.4-32-32v-176c0-17.6 14.4-32 32-32s32 14.4 32 32V160c0 17.6-14.4 32-32 32z"  horiz-adv-x="1024" />

    
    <glyph glyph-name="wendang" unicode="&#58914;" d="M897.4 698.3h-97.8c-16.4 0-29.7-13.3-29.7-29.7s13.3-29.7 29.7-29.7h68.1v-593H156.4v593h68.1c16.4 0 29.7 13.3 29.7 29.7s-13.3 29.7-29.7 29.7h-97.8c-16.4 0-29.7-13.3-29.7-29.7v-652.4c0-16.4 13.3-29.7 29.7-29.7h770.8c16.4 0 29.7 13.3 29.7 29.7V668.6c-0.1 16.4-13.4 29.7-29.8 29.7z m0 0M399.5 638.9H624c16.2 0 29.9 12.7 30.4 28.9 0.4 16.8-13 30.5-29.7 30.5H400.1c-16.2 0-29.9-12.7-30.4-28.9-0.4-16.8 13.1-30.5 29.8-30.5zM311.9 556c16.4 0 29.7 13.3 29.7 29.7V752.1c0 16.2-12.7 29.9-28.9 30.4-16.8 0.4-30.5-13-30.5-29.7v-167c0-16.5 13.3-29.8 29.7-29.8z m400.6 0c16.4 0 29.7 13.3 29.7 29.7V752.1c0 16.2-12.7 29.9-28.9 30.4-16.8 0.4-30.5-13-30.5-29.7v-167c0-16.5 13.3-29.8 29.7-29.8z m0 0M638.9 411.9H385.8c-10.6 0-19.2 8.7-18.3 19.3 0.7 9.2 8.4 16.4 17.8 16.4h253.1c10.6 0 19.2-8.7 18.3-19.3-0.8-9.2-8.5-16.4-17.8-16.4z m38-125.2H347.8c-10.6 0-19.2 8.7-18.3 19.3 0.7 9.2 8.4 16.4 17.8 16.4h329.1c10.6 0 19.2-8.7 18.3-19.3-0.8-9.2-8.4-16.4-17.8-16.4z m55-119.4H292.8c-10.6 0-19.2 8.7-18.3 19.3 0.7 9.2 8.4 16.4 17.8 16.4h439.1c10.6 0 19.2-8.7 18.3-19.3-0.8-9.2-8.4-16.4-17.8-16.4z m0 0"  horiz-adv-x="1024" />

    
    <glyph glyph-name="trigger-qr" unicode="&#59530;" d="M866 414H158c-16.6 0-30-13.4-30-30s13.4-30 30-30h708c16.6 0 30 13.4 30 30s-13.4 30-30 30zM662 708h144c16.6 0 30-13.4 30-30v-144c0-16.6 13.4-30 30-30s30 13.4 30 30V678c0 49.5-40.5 90-90 90H662c-16.6 0-30-13.4-30-30s13.4-30 30-30zM188 534V678c0 16.6 13.4 30 30 30h144c16.6 0 30 13.4 30 30s-13.4 30-30 30H218c-49.5 0-90-40.5-90-90v-144c0-16.6 13.4-30 30-30s30 13.4 30 30zM362 60H218c-16.6 0-30 13.4-30 30V234c0 16.6-13.4 30-30 30s-30-13.4-30-30v-144c0-49.5 40.5-90 90-90h144c16.6 0 30 13.4 30 30s-13.4 30-30 30zM836 234v-144c0-16.6-13.4-30-30-30H662c-16.6 0-30-13.4-30-30s13.4-30 30-30h144c49.5 0 90 40.5 90 90V234c0 16.6-13.4 30-30 30s-30-13.4-30-30z"  horiz-adv-x="1024" />

    
    <glyph glyph-name="setting" unicode="&#58885;" d="M512 568c-100.8 0-184-83.2-184-184s83.2-184 184-184 184 83.2 184 184-83.2 184-184 184z m0-320c-75.2 0-136 60.8-136 136s60.8 136 136 136 136-60.8 136-136-60.8-136-136-136zM857.6 323.20000000000005C836.8 336 824 358.4 824 384s12.8 46.4 33.6 60.8c14.4 9.6 20.8 27.2 16 44.8-8 27.2-19.2 52.8-32 76.8-8 14.4-25.6 24-43.2 19.2-24-4.8-48 1.6-65.6 19.2-17.6 17.6-24 41.6-19.2 65.6 3.2 16-4.8 33.6-19.2 43.2-24 14.4-51.2 24-76.8 32-16 4.8-35.2-1.6-44.8-16C560 708.8 537.6 696 512 696s-46.4 12.8-60.8 33.6c-9.6 14.4-27.2 20.8-44.8 16-27.2-8-52.8-19.2-76.8-32-14.4-8-24-25.6-19.2-43.2 4.8-24-1.6-49.6-19.2-65.6-17.6-17.6-41.6-24-65.6-19.2-16 3.2-33.6-4.8-43.2-19.2-14.4-24-24-51.2-32-76.8-4.8-16 1.6-35.2 16-44.8C187.2 432 200 409.6 200 384s-12.8-46.4-33.6-60.8c-14.4-9.6-20.8-27.2-16-44.8 8-27.2 19.2-52.8 32-76.8 8-14.4 25.6-22.4 43.2-19.2 24 4.8 49.6-1.6 65.6-19.2 17.6-17.6 24-41.6 19.2-65.6-3.2-16 4.8-33.6 19.2-43.2 24-14.4 51.2-24 76.8-32 16-4.8 35.2 1.6 44.8 16C464 59.200000000000045 486.4 72 512 72s46.4-12.8 60.8-33.6c8-11.2 20.8-17.6 33.6-17.6 3.2 0 8 0 11.2 1.6 27.2 8 52.8 19.2 76.8 32 14.4 8 24 25.6 19.2 43.2-4.8 24 1.6 49.6 19.2 65.6 17.6 17.6 41.6 24 65.6 19.2 16-3.2 33.6 4.8 43.2 19.2 14.4 24 24 51.2 32 76.8 4.8 17.6-1.6 35.2-16 44.8z m-56-92.8c-38.4 6.4-76.8-6.4-104-33.6-27.2-27.2-40-65.6-33.6-104-17.6-9.6-36.8-17.6-56-24-22.4 30.4-57.6 49.6-97.6 49.6-38.4 0-73.6-17.6-97.6-49.6-19.2 6.4-38.4 14.4-56 24 6.4 38.4-6.4 76.8-33.6 104-27.2 27.2-65.6 40-104 33.6-9.6 17.6-17.6 36.8-24 56 30.4 22.4 49.6 57.6 49.6 97.6 0 38.4-17.6 73.6-49.6 97.6 6.4 19.2 14.4 38.4 24 56 38.4-6.4 76.8 6.4 104 33.6 27.2 27.2 40 65.6 33.6 104 17.6 9.6 36.8 17.6 56 24 22.4-30.4 57.6-49.6 97.6-49.6 38.4 0 73.6 17.6 97.6 49.6 19.2-6.4 38.4-14.4 56-24-6.4-38.4 6.4-76.8 33.6-104 27.2-27.2 65.6-40 104-33.6 9.6-17.6 17.6-36.8 24-56C795.2 459.2 776 424 776 384c0-38.4 17.6-73.6 49.6-97.6-6.4-19.2-14.4-38.4-24-56z"  horiz-adv-x="1024" />

    


  </font>
</defs>
</svg>
